<svg width="17" height="16" viewBox="0 0 17 16" fill="none" xmlns="http://www.w3.org/2000/svg">
<path d="M14.5 9.33331V9.99998C14.5 11.2733 13.7867 12.38 12.7334 12.94L13.1667 14.6666H11.8334L11.5 13.3333H5.50004L5.16671 14.6666H3.83337L4.26671 12.94C3.73283 12.6568 3.28625 12.2334 2.97497 11.7154C2.66369 11.1974 2.4995 10.6043 2.50004 9.99998V9.33331H1.83337V7.99998H13.8334V3.33331C13.8334 3.1565 13.7631 2.98693 13.6381 2.86191C13.5131 2.73688 13.3435 2.66665 13.1667 2.66665C12.8334 2.66665 12.58 2.89331 12.5 3.19331C12.92 3.55331 13.1667 4.08665 13.1667 4.66665H9.16671C9.16671 4.13621 9.37742 3.62751 9.75249 3.25243C10.1276 2.87736 10.6363 2.66665 11.1667 2.66665H11.28C11.5534 1.89331 12.2934 1.33331 13.1667 1.33331C13.6971 1.33331 14.2058 1.54403 14.5809 1.9191C14.956 2.29417 15.1667 2.80288 15.1667 3.33331V9.33331H14.5ZM13.1667 9.33331H3.83337V9.99998C3.83337 10.5304 4.04409 11.0391 4.41916 11.4142C4.79423 11.7893 5.30294 12 5.83337 12H11.1667C11.6971 12 12.2058 11.7893 12.5809 11.4142C12.956 11.0391 13.1667 10.5304 13.1667 9.99998V9.33331Z" fill="white"/>
</svg>
