<svg width="17" height="16" viewBox="0 0 17 16" fill="none" xmlns="http://www.w3.org/2000/svg">
<path d="M5.83329 3.33331C5.49996 3.33331 5.16663 3.47331 4.90663 3.73331C4.64663 3.99331 4.49996 4.29998 4.49996 4.66665V6.66665C4.14663 6.66665 3.83329 6.79331 3.55996 7.05998C3.28663 7.32665 3.16663 7.64665 3.16663 7.99998V11.3333H4.05996L4.49996 12.6666H5.16663L5.62663 11.3333H11.4066L11.8333 12.6666H12.5L12.94 11.3333H13.8333V7.99998C13.8333 7.64665 13.7066 7.33331 13.44 7.05998C13.1733 6.78665 12.8533 6.66665 12.5 6.66665V4.66665C12.5 4.29998 12.3666 3.99998 12.0933 3.73331C11.82 3.46665 11.5 3.33331 11.1666 3.33331M5.83329 4.66665H7.83329V6.66665H5.83329M9.16663 4.66665H11.1666V6.66665H9.16663M4.49996 7.99998H12.5V9.99998H4.49996V7.99998Z" fill="#FFF4E0"/>
</svg>
