<svg width="42" height="42" viewBox="0 0 42 42" fill="none" xmlns="http://www.w3.org/2000/svg">
<path d="M35.4375 1.77015e-07L6.5625 3.27805e-08C2.93813 1.46763e-08 -1.5843e-08 2.93813 -3.53863e-08 6.5625L-1.91086e-07 35.4375C-2.10629e-07 39.0619 2.93813 42 6.5625 42L35.4375 42C39.0619 42 42 39.0619 42 35.4375L42 6.5625C42 2.93813 39.0619 1.95119e-07 35.4375 1.77015e-07Z" fill="#1877F2"/>
<path d="M31.4981 21.0007C31.4981 15.2257 26.7731 10.5007 20.9981 10.5007C15.2231 10.5007 10.4981 15.2257 10.4981 21.0007C10.4981 26.2507 14.3043 30.582 19.2918 31.3695L19.2918 24.0195L16.6668 24.0195L16.6668 21.0007L19.2918 21.0007L19.2918 18.6382C19.2918 16.0132 20.8668 14.5695 23.2293 14.5695C24.4106 14.5695 25.5918 14.832 25.5918 14.832L25.5918 17.457L24.2793 17.457C22.9668 17.457 22.5731 18.2445 22.5731 19.032L22.5731 21.0007L25.4606 21.0007L24.9356 24.0195L22.4418 24.0195L22.4418 31.5007C27.6918 30.7132 31.4981 26.2507 31.4981 21.0007Z" fill="white"/>
</svg>
