<svg width="15" height="16" viewBox="0 0 15 16" fill="none" xmlns="http://www.w3.org/2000/svg">
<path d="M2.3745 4.27196C2.61112 4.19904 2.87254 4.28269 3.02172 4.48781C3.18747 4.71571 3.16786 5.02925 2.975 5.23473L2.44674 5.62603C2.19643 5.83398 2.05082 6.14192 2.04891 6.46733V12.4347C2.05605 13.4068 2.84421 14.192 3.8163 14.1956H6.8163V14.2086C7.14047 14.2086 7.40326 14.4714 7.40326 14.7956C7.40326 15.1198 7.14047 15.3826 6.8163 15.3826H3.8163C2.19335 15.379 0.878587 14.0642 0.875 12.4412V6.46733C0.885376 5.77702 1.20941 5.12896 1.75543 4.70647L2.29674 4.30212L2.3745 4.27196ZM6.2163 1.09994C7.20661 0.303925 8.61731 0.303925 9.60761 1.09994L14.1141 4.69342C14.6481 5.12291 14.9616 5.76904 14.9685 6.45429L14.962 12.4347C14.962 14.0592 13.6451 15.376 12.0207 15.376H10.7163C9.93004 15.376 9.29163 14.7405 9.28804 13.9543V11.2543L9.28195 11.1863C9.24992 11.0098 9.09548 10.876 8.90978 10.876H6.95326C6.8518 10.876 6.75459 10.9168 6.68346 10.9891C6.61233 11.0615 6.57325 11.1594 6.575 11.2608V12.2912C6.575 12.6154 6.31221 12.8782 5.98804 12.8782C5.66388 12.8782 5.40109 12.6154 5.40109 12.2912V11.2608C5.40109 10.8474 5.56531 10.451 5.85762 10.1586C6.14993 9.86634 6.54639 9.70212 6.95978 9.70212H8.9163C9.7746 9.70571 10.4685 10.4025 10.4685 11.2608V13.9543C10.4685 14.0912 10.5794 14.2021 10.7163 14.2021H12.0533C13.0258 14.2021 13.8141 13.4137 13.8141 12.4412V6.46733C13.8094 6.13639 13.6561 5.82511 13.3967 5.61951L8.89022 2.02603C8.32195 1.55818 7.50197 1.55818 6.9337 2.02603L5.48587 3.10864C5.21753 3.30134 4.84379 3.24002 4.65109 2.97168C4.45839 2.70334 4.51971 2.3296 4.78804 2.1369L6.2163 1.09994Z" fill="#3B3386"/>
</svg>
