<svg width="18" height="18" viewBox="0 0 18 18" fill="none" xmlns="http://www.w3.org/2000/svg">
<path d="M3.3745 5.27196C3.61112 5.19904 3.87254 5.28269 4.02172 5.48781C4.18747 5.71571 4.16786 6.02925 3.975 6.23473L3.44674 6.62603C3.19643 6.83398 3.05082 7.14192 3.04891 7.46733V13.4347C3.05605 14.4068 3.84421 15.192 4.8163 15.1956H7.8163V15.2086C8.14047 15.2086 8.40326 15.4714 8.40326 15.7956C8.40326 16.1198 8.14047 16.3826 7.8163 16.3826H4.8163C3.19335 16.379 1.87859 15.0642 1.875 13.4412V7.46733C1.88538 6.77702 2.20941 6.12896 2.75543 5.70647L3.29674 5.30212L3.3745 5.27196ZM7.2163 2.09994C8.20661 1.30393 9.61731 1.30393 10.6076 2.09994L15.1141 5.69342C15.6481 6.12291 15.9616 6.76904 15.9685 7.45429L15.962 13.4347C15.962 15.0592 14.6451 16.376 13.0207 16.376H11.7163C10.93 16.376 10.2916 15.7405 10.288 14.9543V12.2543L10.2819 12.1863C10.2499 12.0098 10.0955 11.876 9.90978 11.876H7.95326C7.8518 11.876 7.75459 11.9168 7.68346 11.9891C7.61233 12.0615 7.57325 12.1594 7.575 12.2608V13.2912C7.575 13.6154 7.31221 13.8782 6.98804 13.8782C6.66388 13.8782 6.40109 13.6154 6.40109 13.2912V12.2608C6.40109 11.8474 6.56531 11.451 6.85762 11.1586C7.14993 10.8663 7.54639 10.7021 7.95978 10.7021H9.9163C10.7746 10.7057 11.4685 11.4025 11.4685 12.2608V14.9543C11.4685 15.0912 11.5794 15.2021 11.7163 15.2021H13.0533C14.0258 15.2021 14.8141 14.4137 14.8141 13.4412V7.46733C14.8094 7.13639 14.6561 6.82511 14.3967 6.61951L9.89022 3.02603C9.32195 2.55818 8.50197 2.55818 7.9337 3.02603L6.48587 4.10864C6.21753 4.30134 5.84379 4.24002 5.65109 3.97168C5.45839 3.70334 5.51971 3.3296 5.78804 3.1369L7.2163 2.09994Z" fill="white"/>
</svg>
