<svg width="42" height="42" viewBox="0 0 42 42" fill="none" xmlns="http://www.w3.org/2000/svg">
<path d="M35.4375 1.77015e-07L6.5625 3.27805e-08C2.93813 1.46763e-08 -1.5843e-08 2.93813 -3.53863e-08 6.5625L-1.91086e-07 35.4375C-2.10629e-07 39.0619 2.93813 42 6.5625 42L35.4375 42C39.0619 42 42 39.0619 42 35.4375L42 6.5625C42 2.93813 39.0619 1.95119e-07 35.4375 1.77015e-07Z" fill="#F00073"/>
<path d="M20.999 12.075C23.8865 12.075 24.2803 12.075 25.4615 12.075C26.5115 12.075 27.0365 12.3375 27.4303 12.4687C27.9553 12.7312 28.349 12.8625 28.7428 13.2562C29.1365 13.65 29.399 14.0437 29.5303 14.5687C29.6615 14.9625 29.7928 15.4875 29.924 16.5375C29.924 17.7187 29.924 17.9812 29.924 21C29.924 24.0187 29.924 24.2812 29.924 25.4625C29.924 26.5125 29.6615 27.0375 29.5303 27.4312C29.2678 27.9562 29.1365 28.35 28.7428 28.7437C28.349 29.1375 27.9553 29.4 27.4303 29.5312C27.0365 29.6625 26.5115 29.7937 25.4615 29.925C24.2803 29.925 24.0178 29.925 20.999 29.925C17.9803 29.925 17.7178 29.925 16.5365 29.925C15.4865 29.925 14.9615 29.6625 14.5678 29.5312C14.0428 29.2687 13.649 29.1375 13.2553 28.7437C12.8615 28.35 12.599 27.9562 12.4678 27.4312C12.3365 27.0375 12.2053 26.5125 12.074 25.4625C12.074 24.2812 12.074 24.0187 12.074 21C12.074 17.9812 12.074 17.7187 12.074 16.5375C12.074 15.4875 12.3365 14.9625 12.4678 14.5687C12.7303 14.0437 12.8615 13.65 13.2553 13.2562C13.649 12.8625 14.0428 12.6 14.5678 12.4687C14.9615 12.3375 15.4865 12.2062 16.5365 12.075C17.7178 12.075 18.1115 12.075 20.999 12.075ZM20.999 10.1062C17.9803 10.1062 17.7178 10.1062 16.5365 10.1062C15.3553 10.1062 14.5678 10.3687 13.9115 10.6312C13.2553 10.8937 12.599 11.2875 11.9428 11.9437C11.2865 12.6 11.024 13.125 10.6303 13.9125C10.3678 14.5687 10.2365 15.3562 10.1053 16.5375C10.1053 17.7187 10.1053 18.1125 10.1053 21C10.1053 24.0187 10.1053 24.2812 10.1053 25.4625C10.1053 26.6437 10.3678 27.4312 10.6303 28.0875C10.8928 28.7437 11.2865 29.4 11.9428 30.0562C12.599 30.7125 13.124 30.975 13.9115 31.3687C14.5678 31.6312 15.3553 31.7625 16.5365 31.8937C17.7178 31.8937 18.1115 31.8937 20.999 31.8937C23.8865 31.8937 24.2803 31.8937 25.4615 31.8937C26.6428 31.8937 27.4303 31.6312 28.0865 31.3687C28.7428 31.1062 29.399 30.7125 30.0553 30.0562C30.7115 29.4 30.974 28.875 31.3678 28.0875C31.6303 27.4312 31.7615 26.6437 31.8928 25.4625C31.8928 24.2812 31.8928 23.8875 31.8928 21C31.8928 18.1125 31.8928 17.7187 31.8928 16.5375C31.8928 15.3562 31.6303 14.5687 31.3678 13.9125C31.1053 13.2562 30.7115 12.6 30.0553 11.9437C29.399 11.2875 28.874 11.025 28.0865 10.6312C27.4303 10.3687 26.6428 10.2375 25.4615 10.1062C24.2803 10.1062 24.0178 10.1062 20.999 10.1062Z" fill="white"/>
<path d="M20.999 15.3562C17.849 15.3562 15.3553 17.85 15.3553 21C15.3553 24.15 17.849 26.6437 20.999 26.6437C24.149 26.6437 26.6428 24.15 26.6428 21C26.6428 17.85 24.149 15.3562 20.999 15.3562ZM20.999 24.675C19.0303 24.675 17.324 23.1 17.324 21C17.324 19.0312 18.899 17.325 20.999 17.325C22.9678 17.325 24.674 18.9 24.674 21C24.674 22.9687 22.9678 24.675 20.999 24.675Z" fill="white"/>
<path d="M26.774 16.5375C27.4989 16.5375 28.0865 15.9498 28.0865 15.225C28.0865 14.5001 27.4989 13.9125 26.774 13.9125C26.0492 13.9125 25.4615 14.5001 25.4615 15.225C25.4615 15.9498 26.0492 16.5375 26.774 16.5375Z" fill="white"/>
</svg>
