<svg width="42" height="42" viewBox="0 0 42 42" fill="none" xmlns="http://www.w3.org/2000/svg">
<path d="M35.4375 1.77015e-07L6.5625 3.27805e-08C2.93813 1.46763e-08 -1.5843e-08 2.93813 -3.53863e-08 6.5625L-1.91086e-07 35.4375C-2.10629e-07 39.0619 2.93813 42 6.5625 42L35.4375 42C39.0619 42 42 39.0619 42 35.4375L42 6.5625C42 2.93813 39.0619 1.95119e-07 35.4375 1.77015e-07Z" fill="#2867B2"/>
<path d="M15.2231 31.5007L10.7605 31.5007L10.7605 17.457L15.2231 17.457L15.2231 31.5007ZM12.9918 15.4882C11.548 15.4882 10.498 14.4382 10.498 12.9945C10.498 11.5507 11.6793 10.5007 12.9918 10.5007C14.4355 10.5007 15.4856 11.5507 15.4856 12.9945C15.4856 14.4382 14.4355 15.4882 12.9918 15.4882ZM31.498 31.5007L27.0356 31.5007L27.0356 23.8882C27.0356 21.657 26.1168 21.0007 24.8043 21.0007C23.4918 21.0007 22.1793 22.0507 22.1793 24.0195L22.1793 31.5007L17.7168 31.5007L17.7168 17.457L21.9168 17.457L21.9168 19.4257C22.3105 18.507 23.8855 17.0632 26.1168 17.0632C28.6105 17.0632 31.2355 18.507 31.2355 22.8382L31.2355 31.5007L31.498 31.5007Z" fill="white"/>
</svg>
