<svg width="13" height="13" viewBox="0 0 13 13" fill="none" xmlns="http://www.w3.org/2000/svg">
<g id="ep:location">
<path id="Vector" d="M9.71105 5.42909C9.71105 4.51849 9.34931 3.64518 8.70542 3.00128C8.06152 2.35739 7.18821 1.99565 6.27761 1.99565C5.367 1.99565 4.49369 2.35739 3.8498 3.00128C3.2059 3.64518 2.84416 4.51849 2.84416 5.42909C2.84416 6.83757 3.9711 8.67332 6.27761 10.8722C8.58412 8.67332 9.71105 6.83757 9.71105 5.42909ZM6.27761 11.9145C3.47973 9.37145 2.08118 7.20914 2.08118 5.42909C2.08118 4.31613 2.5233 3.24875 3.31028 2.46177C4.09727 1.67479 5.16464 1.23267 6.27761 1.23267C7.39057 1.23267 8.45795 1.67479 9.24493 2.46177C10.0319 3.24875 10.474 4.31613 10.474 5.42909C10.474 7.20914 9.07548 9.37145 6.27761 11.9145Z" fill="#3B3386"/>
<path id="Vector_2" d="M6.27771 6.57368C6.58124 6.57368 6.87235 6.4531 7.08698 6.23847C7.30161 6.02383 7.42219 5.73273 7.42219 5.4292C7.42219 5.12566 7.30161 4.83456 7.08698 4.61993C6.87235 4.40529 6.58124 4.28472 6.27771 4.28472C5.97417 4.28472 5.68307 4.40529 5.46844 4.61993C5.25381 4.83456 5.13323 5.12566 5.13323 5.4292C5.13323 5.73273 5.25381 6.02383 5.46844 6.23847C5.68307 6.4531 5.97417 6.57368 6.27771 6.57368ZM6.27771 7.33666C5.77182 7.33666 5.28664 7.1357 4.92892 6.77798C4.5712 6.42026 4.37024 5.93509 4.37024 5.4292C4.37024 4.9233 4.5712 4.43813 4.92892 4.08041C5.28664 3.72269 5.77182 3.52173 6.27771 3.52173C6.7836 3.52173 7.26877 3.72269 7.62649 4.08041C7.98421 4.43813 8.18517 4.9233 8.18517 5.4292C8.18517 5.93509 7.98421 6.42026 7.62649 6.77798C7.26877 7.1357 6.7836 7.33666 6.27771 7.33666Z" fill="#3B3386"/>
</g>
</svg>
